<?xml version="1.0" standalone="no"?>
<!DOCTYPE svg PUBLIC "-//W3C//DTD SVG 20010904//EN"
 "http://www.w3.org/TR/2001/REC-SVG-20010904/DTD/svg10.dtd">
<svg version="1.0" xmlns="http://www.w3.org/2000/svg"
 width="520.000000pt" height="520.000000pt" viewBox="0 0 520.000000 520.000000"
 preserveAspectRatio="xMidYMid meet">
<metadata>
Created by potrace 1.11, written by Peter Selinger 2001-2013
</metadata>
<g transform="translate(0.000000,520.000000) scale(0.100000,-0.100000)"
fill="#000000" stroke="none">
<path d="M2487 4684 c-1 -1 -33 -5 -72 -9 -38 -3 -92 -11 -120 -16 -27 -5 -66
-12 -85 -15 -115 -18 -402 -138 -513 -216 -313 -220 -509 -512 -631 -938 -13
-47 -27 -103 -30 -125 -4 -22 -8 -47 -11 -55 -2 -8 -6 -37 -10 -65 -3 -27 -8
-57 -10 -65 -12 -48 -19 -212 -19 -485 -1 -408 11 -546 65 -760 11 -44 22 -84
23 -90 19 -85 106 -294 168 -402 175 -308 428 -527 763 -660 70 -28 260 -79
325 -88 25 -3 52 -8 60 -10 52 -15 389 -22 525 -11 71 6 185 21 230 30 11 2
40 7 65 12 25 4 47 8 50 9 24 5 86 19 90 20 3 1 19 5 35 9 86 23 252 84 345
128 139 66 256 145 360 244 l85 82 0 780 c0 687 -2 781 -15 784 -8 2 -355 4
-770 3 l-755 0 0 -295 0 -295 365 -1 365 -1 2 -336 3 -336 -43 -34 c-133 -106
-328 -159 -586 -159 -151 -1 -227 10 -340 48 -341 114 -547 450 -588 959 -15
186 -7 727 12 825 3 14 7 43 10 66 2 22 18 93 34 156 109 431 374 658 771 659
386 2 618 -160 714 -496 14 -49 27 -102 28 -117 2 -20 8 -28 23 -29 24 0 670
0 732 0 29 1 41 5 38 14 -2 6 -6 32 -9 57 -19 153 -78 345 -151 496 -134 275
-351 480 -635 597 -82 34 -229 78 -300 91 -19 3 -44 8 -55 10 -28 5 -99 14
-170 22 -53 6 -363 13 -368 8z"/>
</g>
</svg>
